<svg width="639" height="639" viewBox="0 0 639 639" fill="none" xmlns="http://www.w3.org/2000/svg">
<path d="M318.695 617.312C488.353 617.312 625.888 537.041 625.888 438.022C625.888 339.002 488.353 258.731 318.695 258.731C149.037 258.731 11.502 339.002 11.502 438.022C11.502 537.041 149.037 617.312 318.695 617.312Z" fill="#F0F0F0"/>
<path d="M238.986 415.759C191.189 443.389 191.189 488.196 238.986 515.801C286.783 543.406 364.409 543.418 412.257 515.801C460.106 488.183 460.106 443.389 412.257 415.759C364.409 388.129 286.886 388.141 238.986 415.759Z" fill="#E0E0E0"/>
<path d="M499.442 446.443C474.867 460.629 474.867 483.633 499.442 497.819C524.018 512.005 563.866 512.005 588.442 497.819C613.018 483.633 613.018 460.629 588.442 446.443C563.866 432.258 523.98 432.245 499.442 446.443Z" fill="#E0E0E0"/>
<path d="M48.564 451.837C26.1479 464.77 26.1479 485.755 48.564 498.701C70.9802 511.647 107.352 511.647 129.755 498.701C152.159 485.755 152.172 464.77 129.755 451.837C107.339 438.903 70.9418 438.891 48.564 451.837Z" fill="#E0E0E0"/>
<path d="M532.083 122.765L523.98 118.087C524.022 117.757 524.043 117.424 524.044 117.091V114.752C523.923 112.48 523.267 110.27 522.13 108.3C520.993 106.33 519.407 104.657 517.501 103.416C516.934 103.037 516.297 102.775 515.628 102.645C514.958 102.516 514.27 102.521 513.603 102.662C513.015 96.732 508.887 90.0225 503.89 87.147C498.484 84.0159 494.1 86.5463 494.1 92.7958V96.2975C494.127 98.0036 494.407 99.6963 494.931 101.32L488.209 97.486C486.202 96.3358 484.579 97.2688 484.579 99.5819C484.653 100.832 485.019 102.047 485.647 103.13C486.275 104.213 487.148 105.134 488.196 105.819L532.057 131.136C534.064 132.299 535.687 131.366 535.687 129.053C535.624 127.795 535.265 126.569 534.639 125.476C534.012 124.384 533.137 123.455 532.083 122.765Z" fill="#EBEBEB"/>
<path d="M540.965 64.0151L545.438 65.7276V55.8998C545.438 48.0912 551.649 46.2254 558.409 50.1233C565.157 54.0212 570.627 63.5039 570.627 71.2997V72.7311C571.577 72.437 572.581 72.3624 573.564 72.513C574.547 72.6635 575.483 73.0352 576.301 73.6001C578.863 75.2722 580.994 77.5237 582.524 80.1724C584.054 82.8211 584.938 85.7926 585.107 88.8466V89.4601L591.331 93.064C593.017 94.1622 594.421 95.6433 595.427 97.3867C596.433 99.13 597.013 101.086 597.12 103.096C597.12 106.79 594.564 108.285 591.331 106.445L540.965 77.3958C539.276 76.2963 537.871 74.8132 536.865 73.0675C535.859 71.3218 535.28 69.3629 535.175 67.3507C535.175 63.6573 537.77 62.162 540.965 64.0151Z" fill="#EBEBEB"/>
<path d="M118.266 122.765L126.356 118.087C126.314 117.757 126.293 117.424 126.292 117.091V114.752C126.413 112.48 127.069 110.27 128.206 108.3C129.343 106.33 130.929 104.657 132.835 103.416C133.963 102.667 135.342 102.396 136.669 102.662C137.257 96.732 141.372 90.0225 146.382 87.147C151.788 84.0159 156.159 86.5463 156.159 92.7958V96.2975C156.137 98.003 155.861 99.6957 155.341 101.32L162.063 97.486C164.057 96.3358 165.693 97.2688 165.693 99.5819C165.622 100.841 165.257 102.066 164.627 103.158C163.996 104.25 163.118 105.179 162.063 105.87L118.266 131.136C116.26 132.299 114.637 131.366 114.637 129.053C114.702 127.792 115.065 126.565 115.696 125.473C116.327 124.38 117.207 123.452 118.266 122.765Z" fill="#EBEBEB"/>
<path d="M109.371 64.0151L104.911 65.7276V55.8998C104.911 48.0912 98.7 46.2254 91.9394 50.1233C85.1915 54.0212 79.7217 63.5039 79.7217 71.2997V72.7311C78.7718 72.437 77.7675 72.3624 76.7846 72.513C75.8017 72.6635 74.8657 73.0352 74.0474 73.6001C71.4841 75.27 69.3508 77.5209 67.8208 80.1701C66.2909 82.8192 65.4073 85.7919 65.242 88.8466V89.4601L59.0181 93.064C57.3313 94.1622 55.9277 95.6433 54.9216 97.3867C53.9156 99.13 53.3355 101.086 53.2288 103.096C53.2288 106.79 55.7848 108.285 59.0181 106.445L109.371 77.3702C111.062 76.2722 112.469 74.7897 113.478 73.0439C114.486 71.2981 115.067 69.3385 115.173 67.3251C115.173 63.6573 112.579 62.162 109.371 64.0151Z" fill="#EBEBEB"/>
<path d="M584.455 456.157L580.621 451.415C576.978 440.261 575.703 428.469 576.877 416.794C579.343 395.503 589.145 387.822 596.046 390.161C601.158 391.899 602.692 397.739 594.436 409.944C589.541 417.139 583.1 437.472 584.455 456.157Z" fill="#F66E18"/>
<path opacity="0.15" d="M584.455 456.157L580.621 451.415C576.978 440.261 575.703 428.469 576.877 416.794C579.343 395.503 589.145 387.822 596.046 390.161C601.158 391.899 602.692 397.739 594.436 409.944C589.541 417.139 583.1 437.472 584.455 456.157Z" fill="black"/>
<path d="M582.193 442.917H582.257C582.314 442.906 582.369 442.884 582.418 442.851C582.467 442.819 582.509 442.777 582.541 442.728C582.573 442.679 582.595 442.624 582.606 442.567C582.616 442.509 582.615 442.45 582.602 442.393C578.768 423.695 585.081 402.557 593.082 393.701C593.121 393.656 593.151 393.604 593.171 393.548C593.19 393.492 593.198 393.433 593.195 393.373C593.191 393.314 593.176 393.256 593.15 393.202C593.124 393.149 593.088 393.101 593.043 393.062C592.999 393.022 592.947 392.992 592.891 392.973C592.835 392.953 592.775 392.945 592.716 392.949C592.656 392.952 592.598 392.967 592.545 392.993C592.491 393.019 592.444 393.056 592.404 393.1C584.263 402.123 577.873 423.606 581.72 442.571C581.747 442.675 581.808 442.766 581.895 442.829C581.981 442.892 582.086 442.923 582.193 442.917Z" fill="white"/>
<path d="M583.228 458.074C583.714 458.559 584.187 459.352 584.775 459.697C585.362 460.042 585.835 459.186 586.283 459.953C586.525 460.361 586.564 460.924 586.973 461.231C587.184 461.329 587.422 461.359 587.651 461.316C587.88 461.272 588.09 461.157 588.251 460.988C588.568 460.615 588.842 460.208 589.069 459.774C589.682 458.98 590.453 458.322 591.333 457.841C592.212 457.359 593.182 457.064 594.181 456.975C596.378 456.71 598.552 456.283 600.686 455.697C601.644 455.403 602.5 454.844 603.154 454.084C603.807 453.324 604.232 452.394 604.379 451.403C604.481 449.92 603.599 448.923 602.845 447.39C601.976 445.626 602.973 444.067 604.264 442.93C605.555 441.792 608.162 440.885 609.772 439.977C611.382 439.07 613.951 437.204 614.296 435.389C615.153 430.929 610.462 430.686 610.283 427.53C610.194 425.421 611.766 423.619 612.226 421.561C612.686 419.504 612.788 417.408 611.344 416.053C609.9 414.698 607.357 414.865 605.453 415.414C603.104 416.209 600.934 417.455 599.063 419.082C596.826 420.884 595.331 422.124 592.609 421.025C588.775 419.478 585.081 422.533 585.26 427.939C585.324 430.06 586.065 432.207 585.017 434.047C584.059 435.696 581.311 435.671 579.905 436.961C578.955 437.897 578.231 439.037 577.788 440.295C577.345 441.553 577.195 442.896 577.349 444.22C577.656 448.783 579.956 454.789 583.228 458.074Z" fill="#F66E18"/>
<path d="M585.324 460.898C585.263 460.905 585.2 460.9 585.141 460.882C585.082 460.865 585.026 460.835 584.979 460.796C584.931 460.757 584.892 460.708 584.863 460.653C584.835 460.598 584.818 460.538 584.813 460.477C583.241 444.565 596.417 425.153 606.539 418.302C606.641 418.233 606.766 418.205 606.888 418.227C607.01 418.248 607.119 418.317 607.191 418.417C607.226 418.468 607.251 418.526 607.264 418.586C607.277 418.647 607.278 418.71 607.266 418.771C607.254 418.832 607.23 418.889 607.195 418.941C607.16 418.992 607.115 419.036 607.063 419.069C597.133 425.855 584.212 444.872 585.733 460.438C585.734 460.552 585.692 460.662 585.617 460.747C585.541 460.832 585.437 460.886 585.324 460.898Z" fill="#FAFAFA"/>
<path d="M591.164 437.728C591.081 437.735 590.996 437.719 590.92 437.683C590.844 437.647 590.778 437.592 590.73 437.524C590.697 437.473 590.674 437.415 590.663 437.356C590.653 437.296 590.654 437.234 590.667 437.175C590.68 437.115 590.705 437.059 590.74 437.009C590.775 436.959 590.819 436.917 590.871 436.885C596.634 433.166 603.293 431.849 607.83 433.524C607.893 433.539 607.952 433.568 608.003 433.608C608.054 433.648 608.096 433.698 608.127 433.755C608.157 433.813 608.175 433.876 608.179 433.941C608.183 434.005 608.174 434.07 608.151 434.131C608.128 434.192 608.093 434.247 608.047 434.294C608.002 434.34 607.947 434.376 607.886 434.399C607.826 434.423 607.761 434.433 607.696 434.43C607.631 434.426 607.568 434.409 607.51 434.38C603.242 432.808 596.903 434.086 591.369 437.651C591.306 437.688 591.236 437.714 591.164 437.728Z" fill="#FAFAFA"/>
<path d="M56.6793 461.179L59.6571 455.876C61.3675 444.265 60.6362 432.426 57.51 421.114C51.5034 400.538 40.551 394.608 34.1738 398.11C29.4452 400.666 28.8956 406.698 39.0813 417.28C45.1134 423.581 54.8774 442.546 56.6793 461.179Z" fill="#F66E18"/>
<path opacity="0.15" d="M56.6793 461.179L59.6571 455.876C61.3675 444.265 60.6362 432.426 57.51 421.114C51.5034 400.538 40.551 394.608 34.1738 398.11C29.4452 400.666 28.8956 406.698 39.0813 417.28C45.1134 423.581 54.8774 442.546 56.6793 461.179Z" fill="black"/>
<path d="M56.6921 447.76C56.6312 447.762 56.5706 447.752 56.514 447.729C56.4574 447.707 56.406 447.673 56.3629 447.63C56.3198 447.587 56.286 447.535 56.2635 447.478C56.241 447.422 56.2303 447.361 56.2321 447.3C56.8327 428.233 47.0944 408.449 37.7266 401.05C37.6845 401.009 37.651 400.96 37.6281 400.907C37.6052 400.853 37.5934 400.795 37.5934 400.736C37.5934 400.678 37.6052 400.62 37.6281 400.566C37.651 400.512 37.6845 400.464 37.7266 400.423C37.7997 400.33 37.9066 400.27 38.0239 400.256C38.1413 400.241 38.2595 400.274 38.3528 400.347C47.8867 407.874 57.804 427.977 57.1906 447.326C57.1892 447.388 57.1749 447.449 57.1485 447.506C57.1221 447.562 57.0842 447.612 57.0373 447.653C56.9904 447.694 56.9355 447.725 56.876 447.743C56.8166 447.762 56.754 447.768 56.6921 447.76Z" fill="white"/>
<path d="M55.5163 465.192C55.184 466.087 54.7495 465.985 53.8549 465.704C53.1903 465.499 52.5769 465.167 51.8996 464.975C50.5957 464.577 49.2683 464.261 47.925 464.029C45.484 463.608 43.0047 463.799 40.5893 463.378C39.5941 463.253 38.6548 462.848 37.8809 462.21C37.1071 461.572 36.5305 460.727 36.2185 459.774C35.8735 458.33 36.5764 457.218 37.062 455.569C37.6243 453.678 36.3846 452.297 34.9149 451.403C33.4452 450.508 30.7231 450.048 28.985 449.422C27.247 448.796 24.4098 447.39 23.758 445.652C22.1605 441.396 26.7741 440.374 26.3907 437.23C26.1351 435.134 24.2692 433.626 23.4769 431.683C22.6845 429.741 22.1989 427.67 23.4769 426.086C24.7549 424.501 27.1958 424.258 29.1767 424.475C31.6411 424.856 34.0047 425.725 36.1291 427.031C38.6851 428.424 40.3337 429.396 42.8258 427.849C46.3147 425.689 50.4938 428.079 51.235 433.434C51.5162 435.543 51.1456 437.779 52.513 439.415C53.8805 441.051 56.4365 440.399 58.0467 441.434C59.1278 442.206 60.0196 443.214 60.6549 444.38C61.2903 445.547 61.6526 446.842 61.7146 448.169C62.1619 452.757 60.9478 459.058 58.2768 462.854C57.9263 463.52 57.4972 464.142 56.9988 464.707C56.5387 465.065 55.823 464.4 55.5163 465.192Z" fill="#F66E18"/>
<path d="M56.6793 465.997C56.8025 465.988 56.917 465.93 56.9982 465.837C57.0794 465.744 57.1209 465.622 57.1139 465.499C55.9764 449.549 39.7331 432.629 28.5889 427.517C28.5336 427.491 28.4738 427.477 28.4128 427.474C28.3519 427.472 28.2912 427.482 28.2341 427.503C28.177 427.525 28.1248 427.557 28.0804 427.599C28.036 427.641 28.0003 427.691 27.9755 427.747C27.9478 427.803 27.9319 427.864 27.9285 427.926C27.9252 427.988 27.9346 428.051 27.9561 428.109C27.9776 428.168 28.0108 428.221 28.0537 428.267C28.0966 428.312 28.1482 428.348 28.2055 428.373C39.1324 433.383 55.0435 449.958 56.1682 465.563C56.173 465.625 56.1901 465.686 56.2184 465.741C56.2468 465.797 56.2858 465.846 56.3333 465.886C56.3809 465.927 56.4359 465.957 56.4953 465.976C56.5547 465.995 56.6172 466.003 56.6793 465.997Z" fill="#FAFAFA"/>
<path d="M46.9793 444.143C47.0617 444.138 47.1412 444.111 47.2089 444.063C47.2765 444.016 47.3298 443.951 47.3627 443.875C47.3877 443.82 47.4012 443.76 47.4025 443.7C47.4038 443.639 47.3927 443.579 47.37 443.523C47.3473 443.466 47.3134 443.416 47.2704 443.373C47.2274 443.33 47.1762 443.297 47.1198 443.274C40.8065 440.565 34.0331 440.386 29.8413 442.802C29.7832 442.828 29.7314 442.867 29.6891 442.915C29.6469 442.963 29.6151 443.02 29.5959 443.081C29.5766 443.142 29.5703 443.206 29.5774 443.27C29.5844 443.333 29.6047 443.395 29.6368 443.45C29.6689 443.505 29.7123 443.553 29.764 443.591C29.8157 443.629 29.8748 443.655 29.9373 443.669C29.9999 443.682 30.0645 443.683 30.1272 443.67C30.1899 443.657 30.2492 443.631 30.3014 443.594C34.2376 441.319 40.7043 441.524 46.762 444.105C46.8279 444.142 46.9046 444.156 46.9793 444.143Z" fill="#FAFAFA"/>
<path d="M369.623 463.824C363.45 452.322 367.067 439.363 372.384 430.264C377.994 420.602 370.812 414.264 363.54 421.548C356.268 428.833 356.549 447.415 365.086 461.946L369.623 463.824Z" fill="#37474F"/>
<path d="M365.329 459.773C365.265 459.772 365.203 459.752 365.151 459.716C365.098 459.679 365.058 459.628 365.035 459.569C357.776 441.523 363.016 427.491 367.259 422.047C367.288 422.016 367.322 421.992 367.361 421.975C367.399 421.958 367.441 421.95 367.483 421.95C367.524 421.95 367.566 421.958 367.604 421.975C367.643 421.992 367.677 422.016 367.706 422.047C367.765 422.106 367.798 422.187 367.798 422.27C367.798 422.354 367.765 422.434 367.706 422.494C367.246 423.082 356.6 437.114 365.559 459.377C365.576 459.416 365.585 459.457 365.586 459.499C365.587 459.541 365.579 459.583 365.564 459.622C365.548 459.662 365.525 459.697 365.496 459.728C365.467 459.758 365.432 459.782 365.393 459.799L365.329 459.773Z" fill="#FAFAFA"/>
<path d="M366.479 459.99C364.677 452.872 369.687 441.076 377.304 436.117C384.154 431.67 388.192 431.977 390.173 434.469C392.154 436.961 389.061 440.718 383.783 443.913C378.505 447.108 369.917 454.137 369.623 462.214L366.479 459.99Z" fill="#455A64"/>
<path d="M367.681 459.748C367.598 459.735 367.524 459.69 367.473 459.623C367.423 459.557 367.401 459.473 367.412 459.39C368.946 448.156 378.378 437.664 385.764 435.67C385.806 435.659 385.849 435.655 385.891 435.661C385.933 435.666 385.974 435.68 386.011 435.701C386.048 435.723 386.08 435.752 386.106 435.786C386.132 435.82 386.15 435.859 386.161 435.9C386.18 435.981 386.167 436.067 386.124 436.139C386.081 436.21 386.011 436.262 385.931 436.284C378.723 438.175 369.547 448.488 368.039 459.479C368.034 459.521 368.021 459.561 368 459.597C367.979 459.634 367.951 459.666 367.918 459.691C367.884 459.716 367.846 459.734 367.805 459.744C367.764 459.753 367.722 459.755 367.681 459.748Z" fill="#FAFAFA"/>
<path d="M281.007 464.157C287.179 452.655 283.563 439.684 278.259 430.584C272.636 420.935 279.831 414.596 287.09 421.881C294.349 429.166 294.093 447.748 285.544 462.279L281.007 464.157Z" fill="#37474F"/>
<path d="M285.301 460.08H285.186C285.146 460.065 285.11 460.042 285.079 460.012C285.048 459.982 285.024 459.947 285.007 459.907C284.99 459.868 284.982 459.826 284.982 459.783C284.982 459.74 284.99 459.698 285.007 459.659C293.953 437.396 283.32 423.363 282.86 422.776C282.801 422.716 282.768 422.636 282.768 422.552C282.768 422.468 282.801 422.388 282.86 422.328C282.888 422.298 282.923 422.273 282.962 422.257C283 422.24 283.042 422.231 283.083 422.231C283.125 422.231 283.167 422.24 283.205 422.257C283.244 422.273 283.278 422.298 283.307 422.328C287.55 427.773 292.803 441.805 285.531 459.85C285.517 459.906 285.488 459.956 285.447 459.997C285.407 460.037 285.356 460.066 285.301 460.08Z" fill="#FAFAFA"/>
<path d="M284.15 460.323C285.965 453.205 280.955 441.396 273.339 436.45C266.476 431.99 262.45 432.309 260.456 434.802C258.463 437.294 261.568 441.051 266.846 444.246C272.124 447.441 280.7 454.47 280.994 462.547L284.15 460.323Z" fill="#455A64"/>
<path d="M282.962 460.08C282.883 460.081 282.807 460.053 282.749 460.001C282.69 459.949 282.652 459.877 282.642 459.799C281.134 448.821 271.958 438.508 264.75 436.616C264.705 436.612 264.661 436.597 264.621 436.574C264.582 436.551 264.547 436.52 264.521 436.482C264.495 436.445 264.477 436.402 264.468 436.357C264.46 436.312 264.461 436.266 264.472 436.221C264.484 436.177 264.504 436.135 264.533 436.099C264.561 436.063 264.597 436.034 264.638 436.013C264.679 435.993 264.724 435.981 264.77 435.979C264.816 435.977 264.861 435.986 264.904 436.003C272.303 437.933 281.722 448.489 283.269 459.723C283.276 459.807 283.251 459.891 283.199 459.957C283.147 460.024 283.071 460.068 282.987 460.08H282.962Z" fill="#FAFAFA"/>
<path d="M367.259 473.831C367.706 473.189 368.112 472.519 368.473 471.825C368.575 471.646 368.665 471.467 368.754 471.275C369.038 470.704 369.286 470.115 369.495 469.512L369.7 468.962C369.937 468.23 370.124 467.483 370.262 466.726C370.384 465.969 370.448 465.204 370.454 464.438C370.454 464.221 370.454 463.991 370.454 463.761C370.443 463.23 370.4 462.701 370.326 462.176C370.326 461.895 370.249 461.626 370.198 461.345C370.096 460.847 369.968 460.336 369.815 459.824C369.738 459.582 369.674 459.326 369.585 459.07C369.338 458.343 369.039 457.634 368.69 456.949C368.575 456.719 368.435 456.514 368.307 456.284C368.035 455.775 367.736 455.28 367.412 454.802L366.773 453.92C366.607 453.703 366.479 453.486 366.3 453.268L365.508 452.412L365.086 451.939C360.144 446.26 354.041 441.706 347.189 438.585C340.337 435.465 332.895 433.85 325.366 433.85C317.837 433.85 310.395 435.465 303.543 438.585C296.691 441.706 290.588 446.26 285.646 451.939L285.301 452.323C285.032 452.642 284.764 452.962 284.508 453.243C284.253 453.524 284.176 453.703 284.01 453.933C283.844 454.163 283.601 454.47 283.422 454.751C283.064 455.275 282.745 455.812 282.438 456.348C282.349 456.54 282.221 456.719 282.131 456.898C281.774 457.6 281.466 458.326 281.211 459.07C281.134 459.288 281.083 459.518 281.019 459.735C280.855 460.269 280.718 460.81 280.61 461.358C280.61 461.614 280.521 461.857 280.483 462.112C280.406 462.674 280.368 463.237 280.342 463.799C280.342 464.004 280.342 464.195 280.342 464.387C280.374 465.966 280.65 467.531 281.16 469.026C281.16 469.179 281.275 469.346 281.326 469.512C281.555 470.14 281.82 470.754 282.118 471.352L282.348 471.838C282.731 472.566 283.158 473.27 283.626 473.946C283.62 473.976 283.62 474.006 283.626 474.036C284.186 474.825 284.792 475.581 285.441 476.298L285.582 476.438C286.187 477.086 286.839 477.725 287.537 478.355L288.036 478.777C288.675 479.327 289.314 479.864 290.08 480.388C290.259 480.515 290.425 480.656 290.617 480.784C291.525 481.423 292.483 482.062 293.531 482.65C311.103 492.81 339.667 492.81 357.239 482.65C358.274 482.049 359.22 481.435 360.128 480.796C360.345 480.656 360.524 480.503 360.728 480.362C361.431 479.851 362.083 479.34 362.709 478.803L363.259 478.33C363.916 477.749 364.543 477.135 365.137 476.49L365.342 476.285C365.983 475.581 366.58 474.838 367.131 474.061L367.259 473.831Z" fill="#F66E18"/>
<g style="mix-blend-mode:multiply" opacity="0.2">
<path d="M367.259 473.831C367.706 473.189 368.112 472.519 368.473 471.825C368.575 471.646 368.665 471.467 368.754 471.275C369.038 470.704 369.286 470.115 369.495 469.512L369.7 468.962C369.937 468.23 370.124 467.483 370.262 466.726C370.384 465.969 370.448 465.204 370.454 464.438C370.454 464.221 370.454 463.991 370.454 463.761C370.443 463.23 370.4 462.701 370.326 462.176C370.326 461.895 370.249 461.626 370.198 461.345C370.096 460.847 369.968 460.336 369.815 459.824C369.738 459.582 369.674 459.326 369.585 459.07C369.338 458.343 369.039 457.634 368.69 456.949C368.575 456.719 368.435 456.514 368.307 456.284C368.035 455.775 367.736 455.28 367.412 454.802L366.773 453.92C366.607 453.703 366.479 453.486 366.3 453.268L365.508 452.412L365.086 451.939C360.144 446.26 354.041 441.706 347.189 438.585C340.337 435.465 332.895 433.85 325.366 433.85C317.837 433.85 310.395 435.465 303.543 438.585C296.691 441.706 290.588 446.26 285.646 451.939L285.301 452.323C285.032 452.642 284.764 452.962 284.508 453.243C284.253 453.524 284.176 453.703 284.01 453.933C283.844 454.163 283.601 454.47 283.422 454.751C283.064 455.275 282.745 455.812 282.438 456.348C282.349 456.54 282.221 456.719 282.131 456.898C281.774 457.6 281.466 458.326 281.211 459.07C281.134 459.288 281.083 459.518 281.019 459.735C280.855 460.269 280.718 460.81 280.61 461.358C280.61 461.614 280.521 461.857 280.483 462.112C280.406 462.674 280.368 463.237 280.342 463.799C280.342 464.004 280.342 464.195 280.342 464.387C280.374 465.966 280.65 467.531 281.16 469.026C281.16 469.179 281.275 469.346 281.326 469.512C281.555 470.14 281.82 470.754 282.118 471.352L282.348 471.838C282.731 472.566 283.158 473.27 283.626 473.946C283.62 473.976 283.62 474.006 283.626 474.036C284.186 474.825 284.792 475.581 285.441 476.298L285.582 476.438C286.187 477.086 286.839 477.725 287.537 478.355L288.036 478.777C288.675 479.327 289.314 479.864 290.08 480.388C290.259 480.515 290.425 480.656 290.617 480.784C291.525 481.423 292.483 482.062 293.531 482.65C311.103 492.81 339.667 492.81 357.239 482.65C358.274 482.049 359.22 481.435 360.128 480.796C360.345 480.656 360.524 480.503 360.728 480.362C361.431 479.851 362.083 479.34 362.709 478.803L363.259 478.33C363.916 477.749 364.543 477.135 365.137 476.49L365.342 476.285C365.983 475.581 366.58 474.838 367.131 474.061L367.259 473.831Z" fill="black"/>
</g>
<g opacity="0.5">
<path opacity="0.5" d="M332.28 448.284C330.363 448.77 334.146 455.825 338.223 468.349C340.37 474.969 341.52 484.465 352.281 479.186C362.211 474.317 353.891 462.854 346.197 455.531C339.373 449.013 334.338 447.76 332.28 448.284Z" fill="#F66E18"/>
<path opacity="0.5" d="M334.056 443.965C335.066 444.489 341.29 445.307 351.309 454.662C356.69 459.697 360.894 466.061 362.901 466.879C364.907 467.697 366.3 458.892 362.901 454.496C358.685 449.076 352.97 445.015 346.466 442.815C339.526 440.732 332.382 443.096 334.056 443.965Z" fill="#F66E18"/>
<path opacity="0.5" d="M325.392 485.474C315.053 485.474 313.302 483.608 317.289 466.93C319.385 458.125 323.679 449.281 325.392 449.281C327.104 449.281 331.398 458.125 333.507 466.93C337.494 483.608 335.743 485.474 325.392 485.474Z" fill="#F66E18"/>
<path opacity="0.5" d="M318.516 448.284C320.433 448.77 316.65 455.825 312.573 468.349C310.426 474.969 309.276 484.465 298.515 479.186C288.585 474.317 296.905 462.854 304.599 455.531C311.423 449.013 316.458 447.76 318.516 448.284Z" fill="#F66E18"/>
<path opacity="0.5" d="M316.727 443.965C315.73 444.489 309.506 445.307 299.486 454.662C294.106 459.697 289.902 466.061 287.895 466.879C285.889 467.697 284.496 458.892 287.895 454.496C292.109 449.074 297.824 445.011 304.33 442.815C311.27 440.732 318.414 443.096 316.727 443.965Z" fill="#F66E18"/>
</g>
<path d="M325.392 395.605C324.19 395.586 323.002 395.872 321.941 396.436C321.59 396.604 321.282 396.851 321.04 397.156C320.799 397.462 320.63 397.819 320.548 398.199C319.679 418.839 318.069 428.871 311.474 439.798C311.474 441.856 312.829 443.914 315.564 445.485C318.591 447.106 321.984 447.921 325.417 447.85C328.854 447.922 332.252 447.108 335.283 445.485C338.018 443.914 339.373 441.856 339.373 439.798C332.778 428.833 331.168 418.839 330.299 398.199C330.217 397.819 330.048 397.462 329.807 397.156C329.565 396.851 329.257 396.604 328.906 396.436C327.825 395.861 326.615 395.575 325.392 395.605Z" fill="#F66E18"/>
<g style="mix-blend-mode:multiply" opacity="0.3">
<path d="M325.392 395.605C324.19 395.586 323.002 395.872 321.941 396.436C321.59 396.604 321.282 396.851 321.04 397.156C320.799 397.462 320.63 397.819 320.548 398.199C319.679 418.839 318.069 428.871 311.474 439.798C311.474 441.856 312.829 443.914 315.564 445.485C318.591 447.106 321.984 447.921 325.417 447.85C328.854 447.922 332.252 447.108 335.283 445.485C338.018 443.914 339.373 441.856 339.373 439.798C332.778 428.833 331.168 418.839 330.299 398.199C330.217 397.819 330.048 397.462 329.807 397.156C329.565 396.851 329.257 396.604 328.906 396.436C327.825 395.861 326.615 395.575 325.392 395.605Z" fill="black"/>
</g>
<g style="mix-blend-mode:multiply" opacity="0.15">
<path d="M330.363 400.295C327.053 400.423 323.743 400.423 320.433 400.295C320.139 406.762 319.756 413.075 319.155 419.031C323.296 418.954 327.432 418.707 331.564 418.29C331.002 412.577 330.644 406.506 330.363 400.295Z" fill="black"/>
</g>
<g style="mix-blend-mode:multiply" opacity="0.15">
<path d="M300.202 476.426C285.556 467.262 286.592 450.866 296.304 442.559C292.351 445.184 288.77 448.33 285.659 451.914L285.314 452.297C285.045 452.616 284.777 452.936 284.521 453.217C284.266 453.498 284.189 453.677 284.023 453.907C283.857 454.137 283.614 454.444 283.435 454.725C283.077 455.249 282.757 455.786 282.451 456.323C282.361 456.514 282.234 456.693 282.144 456.872C281.787 457.574 281.479 458.3 281.224 459.045C281.147 459.262 281.096 459.492 281.019 459.709C280.866 460.259 280.725 460.796 280.623 461.332C280.623 461.588 280.534 461.831 280.495 462.086C280.419 462.649 280.38 463.211 280.355 463.773C280.355 463.978 280.355 464.17 280.355 464.361C280.38 465.948 280.652 467.522 281.16 469.026C281.16 469.179 281.275 469.345 281.326 469.512C281.555 470.139 281.82 470.754 282.119 471.352L282.349 471.838C282.731 472.566 283.158 473.27 283.627 473.946C283.62 473.976 283.62 474.006 283.627 474.036C284.186 474.825 284.792 475.581 285.441 476.298L285.582 476.438C286.187 477.086 286.839 477.725 287.537 478.355L288.036 478.777C288.675 479.327 289.314 479.863 290.08 480.387C290.259 480.515 290.425 480.656 290.617 480.784C291.525 481.423 292.483 482.061 293.531 482.649C311.104 492.809 339.667 492.809 357.239 482.649C358.275 482.049 359.22 481.435 360.128 480.796C360.345 480.656 360.524 480.502 360.728 480.362C361.431 479.851 362.083 479.339 362.709 478.803L363.259 478.33C363.916 477.749 364.543 477.135 365.137 476.489L365.342 476.285C347.054 489.231 314.861 485.64 300.202 476.426Z" fill="black"/>
</g>
<path d="M426.264 343.782C412.983 357.058 397.217 367.588 379.866 374.771C362.515 381.955 343.92 385.65 325.141 385.646C287.215 385.639 250.846 370.566 224.033 343.744C197.221 316.921 182.162 280.546 182.169 242.62C182.176 204.695 197.249 168.325 224.072 141.513L214.845 132.299C150.548 196.595 144.414 294.745 208.749 359.041C273.083 423.338 371.054 417.165 435.415 352.869L426.264 343.782Z" fill="#37474F"/>
<path d="M205.017 142.944L214.346 152.274C217.406 148.526 220.652 144.935 224.072 141.513L214.845 132.299C211.394 135.749 208.118 139.298 205.017 142.944Z" fill="#263238"/>
<path d="M426.264 343.782C422.872 347.176 419.31 350.396 415.593 353.431L424.858 362.696C428.462 359.604 431.981 356.349 435.415 352.932L426.264 343.782Z" fill="#263238"/>
<path d="M169.476 256.635C173.604 290.438 185.77 329.686 218.525 358.466C246.437 382.978 289.122 408.998 354.85 399.362C304.062 412.219 249.593 399.861 208.749 359.016C146.357 296.624 150.254 202.397 209.273 138.114C206.844 141.04 162.025 195.687 169.476 256.635Z" fill="#455A64"/>
<path d="M440.514 365.994C442.119 365.997 443.689 365.524 445.025 364.634C446.36 363.744 447.402 362.477 448.016 360.994C448.631 359.512 448.792 357.88 448.477 356.306C448.163 354.732 447.389 353.286 446.252 352.153L215.547 121.615C214.022 120.089 211.954 119.232 209.796 119.232C207.639 119.232 205.571 120.089 204.045 121.615C202.52 123.14 201.663 125.209 201.663 127.366C201.663 129.523 202.52 131.591 204.045 133.117L434.776 363.629C436.301 365.144 438.364 365.994 440.514 365.994Z" fill="#37474F"/>
<path d="M215.547 121.615L446.252 352.153C447.346 353.254 448.103 354.646 448.431 356.163C448.759 357.681 448.646 359.26 448.105 360.716C446.692 361.197 445.172 361.269 443.72 360.923C442.269 360.577 440.944 359.827 439.9 358.76L209.196 128.222C208.099 127.122 207.341 125.731 207.012 124.213C206.684 122.694 206.798 121.114 207.343 119.659C208.758 119.197 210.273 119.136 211.721 119.481C213.168 119.826 214.493 120.564 215.547 121.615Z" fill="#455A64"/>
<path d="M192.646 242.628C192.649 272.278 202.595 301.07 220.892 324.4C239.189 347.73 264.781 364.25 293.575 371.32C322.37 378.389 352.703 375.599 379.724 363.395C406.745 351.191 428.894 330.279 442.628 304.002C456.362 277.725 460.887 247.602 455.482 218.45C450.076 189.297 435.05 162.8 412.808 143.194C390.566 123.589 362.392 112.008 332.792 110.304C303.192 108.6 273.875 116.871 249.53 133.794C231.97 145.999 217.625 162.272 207.72 181.224C197.814 200.176 192.642 221.244 192.646 242.628Z" fill="#F66E18"/>
<path opacity="0.5" d="M192.646 242.628C192.649 272.278 202.595 301.07 220.892 324.4C239.189 347.73 264.781 364.25 293.575 371.32C322.37 378.389 352.703 375.599 379.724 363.395C406.745 351.191 428.894 330.279 442.628 304.002C456.362 277.725 460.887 247.602 455.482 218.45C450.076 189.297 435.05 162.8 412.808 143.194C390.566 123.589 362.392 112.008 332.792 110.304C303.192 108.6 273.875 116.871 249.53 133.794C231.97 145.999 217.625 162.272 207.72 181.224C197.814 200.176 192.642 221.244 192.646 242.628Z" fill="white"/>
<path d="M352.485 131.736C346.811 129.576 338.798 128.682 342.747 133.973C346.696 139.264 349.917 140.9 348.293 145.066C346.67 149.232 342.223 152.504 342.376 155.98C342.53 159.456 343.36 163.763 345.891 163.648C348.421 163.533 356.907 159.315 360.128 160.951C363.348 162.587 374.531 167.661 377.675 164.594C380.819 161.526 382.403 162.472 386.787 159.418C391.17 156.363 393.177 150.791 389.918 149.437C386.659 148.082 385.598 149.322 380.192 146.689C374.786 144.056 373.687 139.353 367.872 138.152C362.058 136.95 356.639 133.321 352.485 131.736Z" fill="#455A64"/>
<path d="M331.002 124.835C323.257 125.691 307.755 125.449 302.221 121.231C299.486 119.123 296.304 116.413 292.662 114.113C261.691 121.97 234.587 140.721 216.314 166.933C216.557 170.619 217.266 174.261 218.423 177.77C220.979 185.438 225.746 188.186 231.446 191.828C237.146 195.47 233.823 198.218 235.395 203.036C236.967 207.854 237.414 210.525 240.111 213.861C242.807 217.196 236.634 218.973 233.721 222.436C230.807 225.899 229.478 227.944 229.094 237.171C228.711 246.399 234.308 256.265 235.484 260.38C236.66 264.495 231.088 266.476 229.503 273.454C227.918 280.432 220.634 297.736 223.011 310.03C225.388 322.325 229.605 322.708 231.74 315.896C233.874 309.084 234.296 301.992 240.047 298.566C245.798 295.141 253.082 299.551 259.344 291.538C265.607 283.524 267.115 284.636 272.546 283.243C277.978 281.85 277.16 278.451 283.856 273.019C290.553 267.588 294.362 261.441 289.748 256.252C285.134 251.063 281.185 249.862 278.962 241.031C276.466 231.814 272.069 223.22 266.054 215.803C260.456 209.055 247.203 209.247 243.191 206.116C239.178 202.985 239.778 193.208 241.401 189.988C243.024 186.767 240.008 184.556 236.417 184.058C232.826 183.559 231.855 180.76 232.698 176.032C233.542 171.303 242.539 168.517 248.213 170.306C253.887 172.096 255.881 175.827 254.079 183.368C253.271 186.376 253.425 189.562 254.521 192.478C255.616 195.393 257.598 197.893 260.188 199.624C264.763 202.921 263.702 196.365 261.543 191.317C259.383 186.269 260.456 182.882 266.361 175.981C272.265 169.08 278.706 172.377 286.617 167.035C294.528 161.693 293.288 167.597 298.029 170.332C302.771 173.067 303.141 170.064 306.797 166.23C310.452 162.396 315.308 168.901 322.056 167.278C328.804 165.655 320.152 155.469 322.887 150.664C325.621 145.858 330.555 148.108 330.785 139.456C331.015 130.803 334.976 132.043 338.095 130.024C341.213 128.005 338.67 123.966 331.002 124.835ZM316.19 140.261C313.046 143.315 311.896 142.024 307.538 145.015C303.18 148.005 298.017 148.568 295.128 147.801C292.24 147.034 289.684 140.337 290.655 137.219C291.627 134.101 296.368 134.957 301.557 136.286C306.745 137.615 311.781 137.155 317.711 135.443C322.324 134.075 319.295 137.206 316.152 140.261H316.19Z" fill="#455A64"/>
<path d="M451.568 282.438L451.466 282.796C450.192 282.786 448.929 283.038 447.755 283.534C446.582 284.031 445.522 284.763 444.642 285.684C439.108 291.422 439.798 288.24 431.363 290.234C422.928 292.227 423.964 296.943 422.417 301.736C420.871 306.528 411.171 308.803 406.749 308.956C402.327 309.11 396.397 319.104 395.554 324.765C394.71 330.427 387.668 330.069 381.981 333.277C376.294 336.484 370.965 343.501 366.965 346.312C365.008 347.729 362.684 348.55 360.272 348.677C357.859 348.804 355.462 348.231 353.367 347.028C349.175 344.472 347.987 335.36 348.14 327.935C348.224 320.358 350.439 312.957 354.53 306.579C358.735 300.125 357.891 300.79 360.613 289.173C363.335 277.556 356.907 271.191 353.099 268.444C349.29 265.696 341.303 265.351 338.414 261.645C335.526 257.939 335.181 254.092 336.868 242.782C338.555 231.471 344.536 231.177 350.798 227.215C357.06 223.254 367.22 220.544 375.08 221.426C382.94 222.308 386.991 226.104 390.416 230.002C393.841 233.899 393.969 239.523 396.908 241.082C399.848 242.641 403.132 242.104 405.982 243.932C408.832 245.759 410.289 248.085 413.484 248.775C416.679 249.465 416.168 245.261 416.5 243.178C416.832 241.095 413.944 240.507 410.327 239.037C406.711 237.567 406.225 236.213 405.893 233.312C405.56 230.41 402.672 231.676 401.33 230.002C399.988 228.327 398.557 232.877 397.726 234.513C396.896 236.149 396.768 232.621 396.768 232.621C396.768 232.621 394.352 234.36 394.135 233.03C393.918 231.701 396.423 229.72 397.279 226.998C398.135 224.276 394.071 223.369 392.499 220.378C390.927 217.388 387.732 215.765 384.052 215.547C380.371 215.33 380.09 214.269 377.508 216.595C374.927 218.921 367.08 217.988 364.997 216.723C362.914 215.458 366.275 211.522 369.84 208.276C373.406 205.029 376.78 207.956 380.869 204.889C384.959 201.822 381.815 199.892 379.809 198.32C377.802 196.748 377.968 194.307 382.365 190.09C386.761 185.872 389.394 188.556 389.726 191.47C390.058 194.384 392.435 196.697 395.49 197.949C398.544 199.202 398.659 196.774 400.359 192.326C402.059 187.879 405.049 186.319 409.739 186.243C414.43 186.166 422.251 186.115 425.804 184.748C429.357 183.38 433.267 186.767 434.635 190.32C436.002 193.872 440.948 196.978 446.137 200.173C446.812 200.571 447.571 200.804 448.353 200.853C449.134 200.902 449.917 200.765 450.635 200.454C459.648 226.989 459.974 255.705 451.568 282.438Z" fill="#455A64"/>
<path d="M404.308 333.698C401.509 331.986 401.381 333.085 398.685 334.734C395.988 336.382 392.295 338.044 391.822 340.676C391.349 343.309 390.327 346.44 393.1 345.456C395.873 344.472 396.039 342.018 399.49 341.865C402.941 341.712 408.487 336.254 404.308 333.698Z" fill="#455A64"/>
<path opacity="0.1" d="M400.857 146.408C331.564 92.425 295.55 140.018 323.602 190.269C351.654 240.52 418.392 280.125 436.872 261.837C455.351 243.548 452.412 186.588 400.857 146.408Z" fill="white"/>
<path opacity="0.15" d="M267.102 290.898C226.206 216.557 266.936 120.324 332.868 110.343C330.312 110.189 327.756 110.087 325.2 110.087C303.361 110.084 281.86 115.478 262.609 125.79C243.358 136.102 226.954 151.012 214.856 169.194C202.758 187.375 195.341 208.265 193.265 230.005C191.189 251.745 194.518 273.661 202.956 293.804C211.394 313.947 224.68 331.692 241.631 345.461C258.582 359.23 278.674 368.597 300.118 372.727C321.563 376.857 343.696 375.624 364.549 369.136C385.402 362.648 404.328 351.107 419.644 335.539C392.87 352.523 307.998 365.188 267.102 290.898Z" fill="black"/>
<path d="M531.967 469.167C532.201 468.72 532.369 468.243 532.466 467.748C532.749 466.148 532.512 464.5 531.789 463.045C530.957 461.287 530.571 459.352 530.664 457.409C530.753 455.39 530.996 453.575 531.303 451.428C532.581 442.367 535.137 427.427 535.239 423.862C535.393 417.778 535.393 414.775 534.255 409.995C534.255 409.995 538.485 396.193 540.274 388.269C543.124 375.707 545.041 365.968 544.032 355.041C543.124 345.188 544.198 340.983 538.447 334.402L537.373 333.034C537.373 333.034 517.411 354.505 516.274 358.224C515.584 370.428 515.149 385.062 514.766 396.564C514.459 406.11 514.842 407.401 515.941 418.609C516.861 427.849 517.794 438.06 518.894 448.91C519.251 452.348 519.52 456.463 518.433 459.799C516.184 466.675 509.884 470.751 504.567 475.135C504.052 475.452 503.611 475.874 503.272 476.374C502.932 476.874 502.703 477.441 502.599 478.036C502.626 478.556 502.794 479.059 503.084 479.491C503.374 479.923 503.776 480.268 504.248 480.49C505.393 480.97 506.612 481.251 507.852 481.321C509.17 481.597 510.518 481.709 511.865 481.653C514.215 481.587 516.538 481.134 518.74 480.311C520.606 479.416 521.986 477.269 523.456 475.787C524.698 474.295 526.114 472.956 527.673 471.799C529.003 470.982 531.137 470.649 531.967 469.167Z" fill="#FFA8A7"/>
<path d="M502.164 478.944C502.024 479.82 502.176 480.719 502.599 481.5C503.264 482.33 505.717 484.528 512.043 484.273C518.127 484.017 521.68 481.103 522.932 479.48C524.184 477.857 525.322 476.247 526.561 474.931C527.755 473.857 529.181 473.074 530.728 472.643C531.929 472.26 532.261 471.825 532.146 470.087C531.776 468.489 502.164 478.944 502.164 478.944Z" fill="#37474F"/>
<path d="M530.651 457.869C530.632 458.231 530.632 458.594 530.651 458.955C530.651 458.955 530.753 461.422 529.13 461.984C527.226 462.674 527.354 461.269 525.91 460.118C522.753 457.626 518.919 457.831 517.999 459.952C516.098 463.421 513.723 466.608 510.944 469.422C509.698 470.623 508.361 471.726 506.944 472.72C505.424 473.806 501.705 475.761 502.075 478.164C502.446 480.566 504.695 481.883 507.749 482.381C511.89 483.002 516.118 482.166 519.712 480.017C522.523 478.189 524.964 474.649 526.012 473.627C527.916 471.748 530.983 471.352 531.955 470.406C532.835 468.73 533.075 466.79 532.632 464.949C532.249 462.802 531.686 460.885 531.61 459.837C531.533 458.789 531.405 457.959 530.651 457.869Z" fill="#455A64"/>
<path d="M511.673 472.541C510.353 472.111 508.948 472.019 507.583 472.272C507.183 472.311 506.803 472.462 506.484 472.707C504.963 473.793 501.577 475.697 501.947 478.1C502.318 480.502 504.503 481.934 507.545 482.458C510.357 482.931 515.29 482.892 518.766 480.566C518.502 478.68 517.689 476.913 516.428 475.486C515.166 474.058 513.513 473.034 511.673 472.541Z" fill="#F0F0F0"/>
<path d="M589.069 460.297C588.647 459.129 587.929 458.089 586.985 457.281C585.976 456.335 584.851 455.53 583.944 454.495C583.194 453.43 582.608 452.258 582.206 451.019C581.899 450.278 581.145 447.786 580.186 444.476C577.63 435.683 573.554 421.088 572.135 417.804C569.72 412.232 567.355 408.628 564.314 406.11C564.314 406.11 563.598 390.889 563.317 382.825C562.908 370.901 561.515 358.044 555.777 349.712C550.153 341.571 545.374 338.938 537.373 335.373L535.827 334.58C535.827 334.58 533.143 372.205 534.805 370.569C536.926 380.294 539.738 391.707 542.076 401.688C544.185 410.698 544.747 412.359 551.022 421.868C556.134 429.625 562.179 438.865 567.751 448.246C570.167 452.322 572.863 457.792 573.426 462.61C574.147 469.127 572.416 475.678 568.569 480.988C567.985 481.594 567.617 482.376 567.521 483.212C567.521 484.375 568.799 485.129 569.886 485.512C572.625 486.421 575.597 486.34 578.282 485.282C580.539 484.367 582.462 482.786 583.796 480.749C585.129 478.712 585.81 476.316 585.746 473.882C585.484 471.12 586.03 468.34 587.318 465.882C588.097 464.515 589.184 463.198 589.26 461.613C589.273 461.167 589.209 460.721 589.069 460.297Z" fill="#FFA8A7"/>
<path d="M567.547 485.73C567.727 486.432 568.102 487.069 568.629 487.566C569.156 488.064 569.813 488.402 570.525 488.541C572.445 488.939 574.428 488.931 576.345 488.517C578.262 488.104 580.071 487.293 581.656 486.139C586.449 482.701 587.075 479.851 587.292 477.269C587.509 474.688 586.768 470.994 587.663 469.052C588.557 467.109 589.708 465.831 590.027 464.361C590.163 463.168 590.037 461.96 589.656 460.821L567.547 485.73Z" fill="#37474F"/>
<path d="M583.944 454.495C583.944 454.495 584.455 455.364 584.557 455.632C584.971 456.401 585.095 457.293 584.905 458.145C584.714 458.997 584.223 459.752 583.522 460.272C582.781 460.911 581.17 460.272 579.803 460.118C578.55 460 577.287 460.185 576.121 460.659C574.955 461.133 573.921 461.881 573.106 462.84C573.247 467.211 573.349 469.805 572.135 473.333C571.295 475.166 570.312 476.931 569.196 478.611C568.02 480.119 565.937 482.573 567.023 484.745C567.627 485.76 568.596 486.505 569.732 486.828C571.582 487.326 573.516 487.421 575.405 487.108C577.294 486.795 579.095 486.081 580.685 485.014C582.273 484.07 583.607 482.753 584.569 481.175C585.532 479.598 586.093 477.81 586.206 475.965C586.576 473.064 585.937 469.984 587.024 467.85C588.11 465.716 589.58 464.975 589.963 462.048C589.98 461.364 589.839 460.685 589.551 460.064C589.263 459.444 588.835 458.898 588.302 458.47C585.95 456.246 584.608 453.613 583.944 454.495Z" fill="#455A64"/>
<path d="M581.068 478.573C579.498 477.257 577.546 476.48 575.501 476.356C573.456 476.231 571.425 476.767 569.707 477.883C569.436 478.128 569.188 478.398 568.966 478.688C567.79 480.196 565.707 482.522 566.793 484.682C567.06 485.237 567.45 485.724 567.932 486.107C568.415 486.49 568.978 486.758 569.579 486.893C571.459 487.37 573.418 487.449 575.33 487.126C577.243 486.802 579.066 486.083 580.685 485.014C581.618 484.405 582.475 483.689 583.241 482.88L583.33 482.777V482.701C583.008 481.129 582.22 479.69 581.068 478.573Z" fill="#F0F0F0"/>
<path d="M515.98 359.323C514.996 374.199 514.267 393.343 514.267 393.343C514.267 393.343 517.679 397.177 527.188 397.854C536.696 398.532 538.409 397.854 538.409 397.854L539.508 393.957L540.594 398.736C540.594 398.736 544.735 400.372 553.757 398.736C563.879 396.896 565.259 393.049 565.259 393.049C565.259 393.049 565.068 378.16 564.339 370.045C563.611 361.93 558.09 348.536 558.09 348.536L515.98 359.323Z" fill="#455A64"/>
<path d="M539.508 393.956L536.249 380.422C532.887 380.399 529.581 379.561 526.613 377.981C526.613 377.981 528.658 382.045 535.035 382.863L538.153 393.956L538.409 397.854L539.508 393.956Z" fill="#37474F"/>
<path d="M492.349 273.645L499.698 293.646C499.698 293.646 519.826 303.73 529.092 307.321C526.216 309.289 524.223 312.049 521.948 317.481L520.146 322.912C520.146 322.912 502.101 312.688 491.813 305.365C487.135 302.017 486.42 298.745 485.627 295.218C484.669 290.911 484.196 288.394 482.777 280.457C482.432 278.464 482.074 276.623 481.729 274.923C481.097 272.076 480.312 269.265 479.378 266.501C478.521 263.786 478.238 260.923 478.547 258.092C478.527 255.876 479.265 253.72 480.638 251.981C482.012 250.242 483.939 249.025 486.1 248.533C486.65 248.291 487.266 248.245 487.845 248.404C488.424 248.562 488.932 248.914 489.282 249.402C489.536 250.043 489.607 250.742 489.487 251.421C489.27 254.297 488.784 257.236 489.487 260.035C489.505 260.218 489.562 260.395 489.655 260.553C489.747 260.712 489.873 260.849 490.023 260.955C490.637 261.274 491.544 259.051 491.979 258.591C492.368 258.068 492.941 257.713 493.582 257.599C494.224 257.485 494.884 257.621 495.429 257.977C495.877 258.322 494.918 259.345 494.356 261.543C493.653 264.354 494.1 266.655 492.618 269.415C492.291 270.066 492.099 270.776 492.053 271.503C492.007 272.23 492.108 272.959 492.349 273.645Z" fill="#FFA8A7"/>
<path d="M528.402 306.413L513.066 300.202C513.066 300.202 510.344 300.202 507.136 305.659C506.198 307.269 505.59 309.05 505.346 310.897C505.103 312.744 505.229 314.622 505.717 316.42L519.072 324.088L528.402 306.413Z" fill="#455A64"/>
<path d="M555.329 309.276C559.355 309.992 561.259 313.174 562.141 317.161C562.576 319.155 562.333 321.519 561.758 325.711C561.183 329.903 558.486 348.319 558.486 348.319L563.266 362.582C556.786 369.623 529.578 375.362 515.43 364.959C515.43 364.959 516.606 329.251 517.667 322.133C519.098 312.484 522.676 307.512 527.022 306.528C528.255 306.377 529.501 306.343 530.741 306.426L546.511 307.295L555.329 309.276Z" fill="#F66E18"/>
<path d="M563.93 367.374L566.333 346.197C566.333 346.197 560.812 338.529 555.048 330.568C548.364 319.845 556.505 309.583 556.505 309.583C564.697 311.001 564.429 315.973 578.602 339.245C581.592 344.153 581.158 344.357 579.586 351.079C578.614 355.386 577.835 357.815 575.547 365.559C574.972 367.489 574.461 369.304 574.014 370.965C573.312 373.796 572.762 376.663 572.365 379.553C571.913 382.365 570.886 385.054 569.349 387.451C568.34 389.262 566.866 390.77 565.08 391.822C562.956 392.751 560.605 393.036 558.32 392.64C557.731 392.593 557.176 392.349 556.742 391.948C556.309 391.547 556.023 391.012 555.93 390.429C555.981 389.739 556.229 389.078 556.646 388.525C558.115 386.058 559.866 383.643 560.48 380.857C560.544 380.685 560.57 380.501 560.557 380.318C560.544 380.135 560.491 379.957 560.403 379.796C560.007 379.247 558.192 380.831 557.604 381.074C557.023 381.373 556.349 381.437 555.721 381.254C555.094 381.071 554.56 380.654 554.23 380.09C554 379.579 555.317 379.093 556.786 377.368C558.678 375.17 559.342 372.92 561.898 371.119C562.469 370.661 562.942 370.094 563.291 369.451C563.64 368.808 563.857 368.102 563.93 367.374Z" fill="#FFA8A7"/>
<path d="M555.329 309.276C558.346 309.685 560.096 310.043 562.32 312.126C564.395 314.151 566.122 316.504 567.432 319.091L573.158 329.225C573.158 329.225 571.88 336.076 560.927 339.181C560.927 339.181 553.259 329.174 552.454 327.539C551.649 325.903 547.776 315.308 555.329 309.276Z" fill="#455A64"/>
<path d="M547.329 302.388C550.856 297.046 556.186 296.854 560.85 288.521C565.873 279.575 559.227 269.862 556.927 268.214C556.927 268.214 556.748 263.434 550.141 259.498C541.885 254.565 524.99 255.664 517.654 267.434L547.329 302.388Z" fill="#37474F"/>
<path d="M556.39 267.792C560.799 263.37 566.614 262.68 571.726 266.744C577.784 271.549 576.915 285.48 585.247 287.831C588.596 288.777 587.152 292.266 582.691 293.327C576.723 294.72 570.947 291.831 567.777 284.636C564.608 277.441 564.148 269.3 558.384 270.284C554.473 270.936 556.39 267.792 556.39 267.792Z" fill="#37474F"/>
<path d="M549.348 286.962C550.115 287.525 550.281 287.78 550.959 286.515C552.428 283.78 556.198 283.397 557.438 286.029C559.074 289.518 556.863 292.79 553.757 294.042C549.604 295.717 548.479 293.186 548.479 293.186L546.511 308.995C545.324 311.024 543.652 312.726 541.644 313.948C539.636 315.171 537.356 315.875 535.009 315.998C527.111 316.254 528.121 309.953 531.009 307.052L531.201 302.375C529.253 302.284 527.331 301.896 525.501 301.225C523.085 300.292 521.347 298.605 520.108 294.669C518.433 289.378 518.715 283.793 521.386 273.556C524.491 261.696 539.354 262.859 546.473 268.444C553.591 274.029 549.348 286.962 549.348 286.962Z" fill="#FFA8A7"/>
<path d="M551.048 279.882L552.058 268.993L536.632 258.667C534.076 258.341 531.481 258.522 528.994 259.199C526.508 259.876 524.18 261.036 522.142 262.614C520.104 264.191 518.397 266.154 517.118 268.391C515.84 270.628 515.014 273.096 514.689 275.652L514.369 278.208L523.89 279.422C526.035 279.694 528.206 279.179 530.001 277.974C531.796 276.769 533.094 274.954 533.654 272.866L533.028 280.534C534.793 280.757 536.576 280.311 538.029 279.284C539.481 278.258 540.496 276.725 540.875 274.987L541.131 273.709C541.04 275.701 541.658 277.66 542.875 279.239C544.091 280.818 545.828 281.915 547.776 282.336L547.47 286.413C547.402 287.3 547.683 288.178 548.253 288.861C548.824 289.544 549.639 289.977 550.524 290.068L550.958 286.515L552.824 280.329L551.048 279.882Z" fill="#37474F"/>
<path d="M535.482 284.457C535.461 284.778 535.535 285.097 535.694 285.375C535.853 285.654 536.091 285.879 536.377 286.024C536.664 286.169 536.986 286.226 537.305 286.188C537.624 286.151 537.924 286.021 538.169 285.814C538.415 285.607 538.594 285.332 538.684 285.025C538.774 284.717 538.772 284.389 538.678 284.082C538.583 283.776 538.401 283.504 538.153 283.3C537.905 283.096 537.603 282.97 537.284 282.937C537.066 282.917 536.846 282.941 536.637 283.008C536.428 283.074 536.234 283.181 536.066 283.322C535.899 283.463 535.761 283.636 535.661 283.831C535.56 284.026 535.5 284.239 535.482 284.457Z" fill="#263238"/>
<path d="M538.038 279.767L541.297 282.029C541.593 281.58 541.703 281.034 541.606 280.505C541.508 279.976 541.21 279.506 540.773 279.192C540.558 279.044 540.314 278.941 540.058 278.89C539.802 278.838 539.538 278.84 539.282 278.893C539.026 278.947 538.784 279.052 538.57 279.202C538.357 279.353 538.175 279.545 538.038 279.767Z" fill="#263238"/>
<path d="M536.236 292.815L529.846 294.49C529.937 294.915 530.114 295.318 530.364 295.673C530.615 296.029 530.935 296.33 531.305 296.56C531.675 296.789 532.087 296.941 532.517 297.007C532.947 297.073 533.386 297.051 533.808 296.943C534.668 296.703 535.402 296.139 535.855 295.369C536.307 294.599 536.444 293.684 536.236 292.815Z" fill="#B16668"/>
<path d="M536.121 294.796C535.727 294.545 535.274 294.4 534.808 294.376C534.341 294.352 533.876 294.45 533.458 294.66C533.041 294.871 532.685 295.186 532.426 295.575C532.167 295.964 532.013 296.413 531.98 296.88C532.581 297.059 533.22 297.059 533.821 296.88C534.344 296.744 534.826 296.483 535.227 296.121C535.627 295.758 535.934 295.303 536.121 294.796Z" fill="#F28F8F"/>
<path d="M521.424 277.863L525.258 276.892C525.209 276.634 525.107 276.39 524.96 276.174C524.812 275.957 524.621 275.774 524.399 275.635C524.177 275.496 523.929 275.404 523.67 275.365C523.411 275.326 523.147 275.341 522.894 275.409C522.38 275.551 521.941 275.884 521.667 276.341C521.393 276.798 521.306 277.343 521.424 277.863Z" fill="#263238"/>
<path d="M521.871 282.924C521.85 283.244 521.924 283.563 522.083 283.842C522.243 284.12 522.48 284.346 522.767 284.49C523.053 284.635 523.376 284.692 523.694 284.655C524.013 284.617 524.314 284.487 524.559 284.28C524.804 284.073 524.983 283.799 525.073 283.491C525.164 283.183 525.162 282.855 525.067 282.549C524.973 282.242 524.79 281.97 524.543 281.766C524.295 281.562 523.992 281.436 523.673 281.403C523.233 281.367 522.797 281.507 522.459 281.792C522.122 282.077 521.91 282.484 521.871 282.924Z" fill="#263238"/>
<path d="M530.741 282.183L529.373 290.822L524.99 288.815L530.741 282.183Z" fill="#F28F8F"/>
<path d="M531.214 302.4C531.214 302.4 539.048 302.4 542.792 300.496C544.309 299.808 545.627 298.749 546.626 297.416C546.137 298.862 545.319 300.175 544.236 301.25C540.338 304.995 531.137 304.228 531.137 304.228L531.214 302.4Z" fill="#F28F8F"/>
<path d="M503.775 239.893C503.083 238.447 502.113 237.152 500.92 236.081C499.727 235.01 498.335 234.184 496.823 233.651C495.311 233.119 493.709 232.889 492.108 232.975C490.507 233.062 488.939 233.463 487.493 234.155C477.039 239.152 472.438 254.884 472.438 254.884C472.438 254.884 487.583 261.172 497.998 256.162C499.446 255.474 500.744 254.507 501.818 253.316C502.892 252.126 503.721 250.735 504.257 249.225C504.793 247.714 505.027 246.112 504.944 244.511C504.861 242.91 504.464 241.341 503.775 239.893ZM488.106 247.395C487.599 246.34 487.416 245.158 487.58 243.999C487.745 242.84 488.25 241.755 489.031 240.883C489.812 240.011 490.834 239.39 491.968 239.099C493.103 238.808 494.298 238.86 495.402 239.249C496.507 239.637 497.471 240.344 498.173 241.281C498.876 242.218 499.284 243.342 499.347 244.511C499.411 245.681 499.125 246.842 498.528 247.849C497.931 248.856 497.048 249.663 495.992 250.169C495.292 250.505 494.533 250.7 493.758 250.743C492.982 250.786 492.206 250.675 491.474 250.417C490.741 250.16 490.067 249.76 489.489 249.242C488.911 248.723 488.442 248.096 488.106 247.395Z" fill="#F66E18"/>
<path d="M70.4178 461.614C71.5552 457.856 79.7983 432.105 82.9422 423.376C86.495 413.523 86.9807 410.046 89.1788 401.062C90.214 396.794 91.3514 392.269 92.4761 387.733C93.9841 394.736 96.2334 407.133 96.719 409.867C96.719 410.289 96.6424 410.8 96.5912 411.388C95.6455 415.618 95.62 418.622 95.7094 424.271C95.7094 427.849 98.0737 442.827 99.3645 451.888C99.6584 453.895 99.9652 455.901 100.17 457.92C100.201 459.868 99.7204 461.789 98.7766 463.492C98.0317 464.935 97.776 466.582 98.0482 468.183C98.1335 468.682 98.2974 469.165 98.5338 469.614C99.3517 471.096 101 471.569 102.368 472.413C104.032 473.775 105.548 475.309 106.892 476.988C108.252 478.558 109.874 479.881 111.684 480.899C113.877 481.75 116.197 482.225 118.547 482.305C119.892 482.38 121.241 482.281 122.56 482.011C123.802 481.964 125.026 481.7 126.177 481.231C126.649 481.012 127.054 480.67 127.349 480.24C127.643 479.811 127.817 479.31 127.851 478.79C127.748 478.194 127.522 477.626 127.188 477.122C126.853 476.619 126.418 476.19 125.909 475.863C120.63 471.429 112.937 465.882 111.544 458.777C111.544 458.777 112.323 453.038 112.617 449.588C113.653 437.894 114.087 428.462 115.084 419.235C116.362 408.04 116.707 406.749 116.49 397.202C116.413 393.969 116.26 390.519 116.055 386.978C115.876 375.796 115.161 364.959 115.186 356.626C115.186 356.626 99.7223 356.92 87.4663 357.7C74.2518 359.31 69.7405 362.3 70.1366 363.987C69.0103 369.925 68.348 375.941 68.1557 381.982C67.734 390.046 66.456 411.043 66.456 411.043C63.3155 416.423 61.3714 422.417 60.7561 428.616C60.3855 432.169 58.9541 456.131 58.6474 457.869C58.1391 459.474 57.4031 460.998 56.462 462.393C55.7457 463.409 55.3053 464.594 55.184 465.831C55.1669 466.263 55.2231 466.696 55.3502 467.109C55.823 468.63 57.2033 469.665 58.3024 470.764C60.1647 472.823 61.3822 475.382 61.8041 478.125C62.3503 480.5 63.6086 482.651 65.4106 484.291C67.2125 485.93 69.4723 486.981 71.8875 487.302C74.7482 487.656 77.6425 486.995 80.0667 485.436C81.038 484.797 82.022 483.761 81.7792 482.611C81.4948 481.822 80.9432 481.158 80.2201 480.733C75.0453 476.701 71.5558 470.888 70.4306 464.425C70.2334 463.486 70.2334 462.515 70.4306 461.575" fill="#B16668"/>
<path d="M98.1759 470.112C98.1759 470.112 97.7542 470.112 97.8053 471.16C97.7819 471.623 97.8894 472.083 98.1154 472.488C98.3414 472.892 98.6769 473.225 99.0833 473.448C99.9651 474.087 103.109 475.365 105.077 477.959C106.457 479.787 107.058 481.793 111.672 484.209C116.285 486.624 122.918 485.666 125.218 484.503C127.519 483.34 128.017 482.867 128.145 480.809L98.1759 470.112Z" fill="#263238"/>
<path d="M111.506 458.802C110.93 459.684 107.812 460.08 106.394 460.642C104.975 461.205 105.218 464.272 105.218 464.272C103.94 464.272 103.94 463.339 103.454 461.716C102.751 459.045 100.77 459.057 100.131 458.712V457.894C100.131 457.894 99.454 457.703 99.3006 458.981C99.0733 460.695 98.6883 462.385 98.1504 464.029C97.767 465.166 97.1408 469.333 98.0226 470.598C98.8798 471.361 99.8036 472.045 100.783 472.643C102.925 473.877 104.805 475.518 106.317 477.473C107.442 479.173 110.905 483.109 118.509 483.186C126.113 483.263 128.222 480.528 128.222 480.528C128.732 479.622 128.884 478.557 128.648 477.544C128.411 476.531 127.803 475.644 126.944 475.058C123.8 472.745 122.471 471.735 118.598 468.668C112.247 463.607 113.908 458.214 111.506 458.802Z" fill="#455A64"/>
<path d="M110.662 481.334C112.17 477.602 114.176 474.944 118.202 473.474C122.228 472.004 124.068 472.477 125.73 473.474C127.391 474.471 130.292 476.963 128.286 480.554C128.286 480.554 127.148 483.481 119.838 483.634C112.528 483.787 110.662 481.334 110.662 481.334Z" fill="#FAFAFA"/>
<path d="M54.0594 468.081C53.7271 469.359 53.3565 470.381 54.545 471.8C55.7336 473.218 57.2416 474.062 58.2768 475.173C59.312 476.285 59.7209 478.739 60.3599 480.822C61.3011 483.884 63.3161 486.502 66.0343 488.196C69.2037 489.947 71.7469 490.752 75.4148 490.088C79.0826 489.423 81.0635 488.286 81.9709 485.142L54.0594 468.081Z" fill="#263238"/>
<path d="M71.1207 461.141C71.683 459.62 67.9001 461.92 63.6827 460.898C62.9287 460.719 62.5709 461.051 62.4047 461.831C62.2386 462.61 62.0469 463.441 61.1267 463.109C60.9443 463.028 60.7807 462.911 60.6465 462.763C60.5122 462.616 60.4103 462.442 60.3472 462.253C60.2284 461.87 60.147 461.476 60.1043 461.077C59.9382 459.991 59.6698 458.393 58.6346 457.856L58.8263 456.578C58.8263 456.578 57.8423 455.671 57.2161 458.751C56.5898 461.831 53.3821 463.863 54.1105 468.068C54.8751 469.444 55.8792 470.673 57.0755 471.697C59.1709 473.293 60.6151 475.595 61.1395 478.177C61.8169 481.308 64.7307 486.062 68.9864 487.301C71.2341 488.017 73.6233 488.169 75.9434 487.743C78.2635 487.317 80.4433 486.327 82.2904 484.86C82.5966 484.414 82.8092 483.909 82.9153 483.378C83.0213 482.847 83.0188 482.3 82.9077 481.77C82.7967 481.239 82.5794 480.737 82.2691 480.293C81.9587 479.849 81.5617 479.473 81.1019 479.186C78.5849 477.289 76.3515 475.043 74.4691 472.515C72.5009 470.176 70.5456 464.617 71.1207 461.141Z" fill="#455A64"/>
<path d="M64.5389 484.477C66.4815 481.499 68.9097 478.087 73.4849 477.116C78.0602 476.145 80.0155 478.151 81.5619 479.467C81.9785 479.766 82.3277 480.149 82.5872 480.591C82.8467 481.033 83.0107 481.525 83.0685 482.034C83.1263 482.544 83.0767 483.06 82.9228 483.549C82.769 484.038 82.5144 484.489 82.1753 484.873C80.9332 486.138 79.4216 487.107 77.7532 487.707C76.0847 488.306 74.3025 488.522 72.5392 488.337C71.0164 488.256 69.5249 487.873 68.1515 487.21C66.778 486.548 65.55 485.619 64.5389 484.477Z" fill="#FAFAFA"/>
<path d="M69.5232 356.179C69.5232 356.179 68.5008 368.179 68.1301 375.221C67.7595 382.263 65.5741 410.57 65.5741 410.57C62.6112 415.742 60.7979 421.492 60.2577 427.427C59.3503 436.693 59.0436 446.316 58.8263 449.243C58.8263 449.243 66.047 453.997 73.6767 452.31C74.239 450.176 84.3352 421.638 86.5845 414.302C88.7571 407.209 92.3866 390.365 92.3866 390.365C92.3866 390.365 95.6199 406.225 95.1215 409.216C93.1278 421.255 97.6775 441.524 98.5593 449.856C98.5593 449.856 99.4667 452.233 105.448 452.31C111.633 452.387 112.796 450.278 112.796 450.278C112.796 450.278 116.63 410.238 117.052 402.685C117.474 395.132 116.03 366.479 115.097 356.677L69.5232 356.179Z" fill="#455A64"/>
<path d="M92.4377 390.365L93.7157 382.851C93.7157 382.851 103.761 382.122 108.208 377.151C108.208 377.151 106.675 383.72 96.1567 384.653L94.7509 391.912L95.1088 406.558C94.3931 401.088 93.409 396.308 92.4377 390.365Z" fill="#37474F"/>
<path d="M134.854 268.239L128.464 288.56C128.464 288.56 108.758 299.512 99.684 303.499C102.636 305.34 104.796 307.998 107.25 313.327L109.243 318.682C109.243 318.682 126.829 307.691 136.784 299.908C141.321 296.368 141.896 293.058 142.51 289.505C143.289 285.16 143.647 282.63 144.721 274.629C144.976 272.636 145.257 270.795 145.513 269.07C146.029 266.196 146.695 263.351 147.507 260.546C148.24 257.796 148.397 254.924 147.967 252.111C147.887 249.897 147.055 247.776 145.608 246.098C144.16 244.42 142.184 243.287 140.005 242.884C139.446 242.669 138.831 242.652 138.261 242.836C137.691 243.02 137.202 243.393 136.874 243.893C136.639 244.545 136.595 245.25 136.746 245.925C137.091 248.788 137.704 251.702 137.142 254.526C137.13 254.708 137.08 254.886 136.994 255.047C136.908 255.208 136.789 255.348 136.644 255.459C136.043 255.804 135.033 253.619 134.586 253.185C134.175 252.679 133.586 252.35 132.939 252.264C132.293 252.179 131.639 252.343 131.11 252.724C130.675 253.095 131.685 254.066 132.388 256.252C133.206 259.025 132.861 261.364 134.471 264.035C134.814 264.674 135.024 265.376 135.09 266.098C135.156 266.82 135.076 267.549 134.854 268.239Z" fill="#B16668"/>
<path d="M99.1472 303.078L115.288 295.678C115.288 295.678 118.023 295.601 121.461 300.879C122.468 302.446 123.154 304.198 123.479 306.032C123.804 307.866 123.761 309.746 123.353 311.564L111.109 320.931L99.1472 303.078Z" fill="#455A64"/>
<path d="M71.1335 305.506C66.2515 306.503 64.7435 308.842 64.2068 313.174C63.8369 317.166 64.2139 321.192 65.3186 325.047L68.143 342.709L68.028 365.508C78.5076 371.425 102.202 373.674 116.592 363.387C116.592 363.387 114.752 326.657 113.755 319.449C112.017 306.95 106.892 302.503 100.885 302.912L83.5173 304.164C79.3608 304.288 75.2202 304.737 71.1335 305.506Z" fill="#F66E18"/>
<path d="M111.812 350.313L90.329 339.181C90.329 339.181 85.9582 331.181 80.9868 320.931C72.4881 307.998 68.1046 307.244 68.1046 307.244C58.3023 312.701 62.2002 321.034 75.402 346.338C77.958 351.271 81.3702 352.498 88.2842 354.977C92.6805 356.562 95.0065 357.431 103.492 360.089C105.524 360.728 108.106 361.457 109.882 361.994C112.835 362.927 114.828 363.847 117.895 364.729C120.725 365.731 123.68 366.338 126.675 366.53C128.881 366.686 131.089 366.244 133.065 365.252C135.109 363.884 136.701 361.941 137.641 359.668C137.956 359.114 138.07 358.469 137.966 357.84C137.861 357.212 137.543 356.639 137.065 356.217C136.418 355.874 135.687 355.723 134.957 355.783C131.902 355.693 128.758 355.885 125.883 354.85C125.692 354.81 125.511 354.73 125.352 354.615C125.194 354.501 125.061 354.354 124.963 354.185C124.707 353.508 127.148 352.779 127.672 352.383C128.263 352.026 128.697 351.459 128.889 350.796C129.081 350.133 129.016 349.422 128.707 348.805C128.388 348.293 127.212 349.201 124.873 349.546C121.819 349.98 119.467 349.252 116.387 350.517C115.651 350.798 114.866 350.924 114.079 350.889C113.292 350.854 112.52 350.658 111.812 350.313Z" fill="#B16668"/>
<path d="M69.1526 306.043C60.6156 308.88 61.0884 315.5 61.6763 318.682C62.2214 321.384 63.133 323.998 64.3857 326.452C67.5168 333.609 73.4851 344.907 73.4851 344.907C73.4851 344.907 80.5141 344.153 89.4601 336.114C89.4601 336.114 78.9932 315.525 77.9581 313.506C77.0507 311.832 73.6384 306.298 69.1526 306.043Z" fill="#455A64"/>
<path d="M111.799 270.68C111.776 273.186 111.016 275.629 109.615 277.706C108.213 279.783 106.233 281.403 103.918 282.363C101.604 283.324 99.0586 283.583 96.5984 283.108C94.1382 282.633 91.8719 281.446 90.0811 279.693C88.2904 277.94 87.0544 275.7 86.5267 273.251C85.9989 270.801 86.2029 268.251 87.1131 265.917C88.0233 263.582 89.5997 261.567 91.6461 260.121C93.6926 258.675 96.1189 257.863 98.6232 257.785C100.335 257.767 102.034 258.086 103.623 258.724C105.211 259.362 106.659 260.306 107.882 261.504C109.106 262.701 110.081 264.128 110.754 265.703C111.426 267.277 111.781 268.969 111.799 270.68Z" fill="#263238"/>
<path d="M72.9994 281.646C72.9994 281.646 75.5554 291.972 76.45 293.659C77.0699 294.699 78.0683 295.459 79.236 295.78L78.8782 288.47L72.9994 281.646Z" fill="#263238"/>
<path d="M75.402 266.68C74.6268 266.612 73.8463 266.722 73.1198 267.001C72.3934 267.28 71.7402 267.721 71.2102 268.291C69.4338 270.208 70.6223 275.959 73.0505 281.646L77.2296 282.004L75.402 266.68Z" fill="#263238"/>
<path d="M78.4309 281.978C77.6129 282.502 76.3733 280.93 75.3125 279.882C74.2518 278.834 70.8395 277.454 69.2676 281.032C67.6957 284.611 70.9801 289.352 73.6511 290.119C78.2647 291.397 78.8654 288.47 78.8654 288.47L79.6833 304.918C80.7524 307.097 82.3452 308.976 84.3191 310.388C86.293 311.8 88.5863 312.7 90.9936 313.008C99.1217 313.877 98.8533 307.103 96.1056 303.908L95.965 299.282C97.9821 299.335 99.9953 299.077 101.933 298.515C104.489 297.748 106.406 296.138 107.991 292.125C110.112 286.783 110.253 281.019 108.272 270.259C105.972 257.785 90.5463 257.862 82.7888 263.063C75.0314 268.265 78.4309 281.978 78.4309 281.978Z" fill="#B16668"/>
<path d="M80.9485 273.569C80.3223 277.185 79.8877 283.307 78.4692 283.384C78.0474 283.384 76.3732 280.828 75.3125 279.882C74.8396 279.473 74.8013 278.604 74.7502 277.978C74.5437 275.812 74.4967 273.633 74.6096 271.46C74.7246 269.134 74.2773 266.552 74.9547 264.303C75.5236 262.584 76.6826 261.122 78.2263 260.175C81.6386 258.003 86.2138 258.092 90.0606 257.21C94.5912 256.281 98.9192 254.55 102.841 252.098L104.029 251.344C104.361 251.086 104.772 250.95 105.192 250.961C105.37 250.989 105.538 251.058 105.684 251.162C105.831 251.266 105.951 251.403 106.036 251.561C106.211 251.878 106.324 252.225 106.368 252.584C106.557 253.66 106.587 254.758 106.457 255.843C106.484 256.814 106.254 257.774 105.793 258.629L108.63 256.801C108.807 256.648 109.035 256.566 109.269 256.571C109.652 256.571 109.806 257.095 109.857 257.479C109.961 259.115 109.652 260.751 108.957 262.237C108.263 263.722 107.205 265.008 105.882 265.977C103.206 267.886 100.05 269.01 96.7701 269.223C93.5112 269.556 90.2395 269.364 86.9679 269.39C85.5612 269.251 84.1421 269.466 82.8399 270.016C82.3006 270.449 81.8549 270.988 81.5298 271.598C81.2047 272.209 81.0069 272.879 80.9485 273.569Z" fill="#263238"/>
<path d="M75.4019 267.6L70.2899 265.044C70.4387 264.692 70.6592 264.374 70.9374 264.111C71.2156 263.848 71.5455 263.646 71.9061 263.517C72.2666 263.389 72.65 263.336 73.0318 263.364C73.4136 263.391 73.7855 263.498 74.1239 263.677C74.7978 264.044 75.3057 264.655 75.5434 265.384C75.781 266.114 75.7304 266.907 75.4019 267.6Z" fill="#263238"/>
<path d="M95.9651 299.282C95.9651 299.282 87.8881 298.682 84.1691 296.445C82.678 295.606 81.4213 294.407 80.514 292.956C80.8968 294.498 81.6416 295.926 82.6866 297.122C86.4184 301.289 96.1056 301.838 96.1056 301.838L95.9651 299.282Z" fill="#9A4A4D"/>
<path d="M92.5656 279.729C92.5629 280.062 92.4622 280.387 92.2761 280.664C92.09 280.941 91.8266 281.156 91.5188 281.284C91.2109 281.412 90.8722 281.447 90.5448 281.384C90.2174 281.321 89.9157 281.163 89.6774 280.93C89.439 280.697 89.2745 280.399 89.2043 280.073C89.134 279.747 89.1612 279.408 89.2825 279.097C89.4037 278.786 89.6136 278.518 89.886 278.326C90.1585 278.134 90.4814 278.026 90.8147 278.016C91.0423 278.013 91.2684 278.054 91.4798 278.139C91.6913 278.223 91.8839 278.349 92.0467 278.508C92.2095 278.667 92.3391 278.857 92.4281 279.066C92.5172 279.276 92.5639 279.501 92.5656 279.729Z" fill="#263238"/>
<path d="M90.214 274.681L86.6739 276.777C86.4037 276.291 86.3312 275.719 86.4717 275.181C86.6121 274.643 86.9546 274.18 87.4279 273.888C87.6619 273.753 87.9206 273.667 88.1887 273.634C88.4567 273.601 88.7286 273.622 88.9884 273.696C89.2482 273.77 89.4905 273.895 89.701 274.064C89.9115 274.233 90.0859 274.443 90.214 274.681Z" fill="#263238"/>
<path d="M91.8626 288.828L98.5849 291.141C98.4528 291.592 98.231 292.011 97.9329 292.374C97.6348 292.737 97.2665 293.036 96.85 293.254C96.4335 293.471 95.9774 293.602 95.5091 293.638C95.0408 293.675 94.5699 293.617 94.1247 293.467C93.2206 293.137 92.4797 292.469 92.0579 291.604C91.636 290.739 91.566 289.744 91.8626 288.828Z" fill="#9A4A4D"/>
<path opacity="0.6" d="M93.5368 290.796C92.9819 290.833 92.4514 291.038 92.016 291.384C92.2019 291.874 92.4927 292.318 92.8679 292.685C93.2432 293.051 93.6939 293.331 94.1886 293.505C94.9275 293.774 95.7373 293.774 96.4762 293.505C96.4648 293.133 96.3792 292.767 96.2246 292.429C96.07 292.09 95.8493 291.786 95.5756 291.533C95.3019 291.281 94.9806 291.086 94.6305 290.959C94.2804 290.833 93.9086 290.777 93.5368 290.796Z" fill="#F28F8F"/>
<path d="M106.905 275.141L103.518 272.712C103.665 272.486 103.857 272.293 104.082 272.143C104.307 271.994 104.561 271.893 104.826 271.845C105.092 271.797 105.365 271.804 105.627 271.865C105.89 271.926 106.138 272.041 106.355 272.201C106.811 272.524 107.123 273.011 107.226 273.56C107.328 274.108 107.213 274.675 106.905 275.141Z" fill="#263238"/>
<path d="M106.138 278.604C106.133 278.934 106.031 279.256 105.844 279.529C105.658 279.801 105.396 280.014 105.09 280.139C104.785 280.264 104.449 280.297 104.125 280.233C103.801 280.169 103.502 280.011 103.267 279.779C103.032 279.547 102.87 279.252 102.801 278.928C102.732 278.605 102.76 278.269 102.881 277.962C103.001 277.654 103.21 277.389 103.48 277.198C103.75 277.008 104.07 276.901 104.4 276.891C104.626 276.89 104.851 276.933 105.061 277.018C105.271 277.103 105.462 277.229 105.624 277.388C105.785 277.547 105.913 277.736 106.002 277.945C106.09 278.153 106.136 278.377 106.138 278.604Z" fill="#263238"/>
<path d="M97.1407 277.722L97.8948 286.732L102.559 284.994L97.1407 277.722Z" fill="#9A4A4D"/>
<path d="M138.663 228.762C137.222 228.06 135.657 227.648 134.057 227.55C132.457 227.453 130.854 227.671 129.338 228.194C127.823 228.716 126.425 229.531 125.225 230.594C124.025 231.656 123.045 232.944 122.343 234.385C121.641 235.826 121.229 237.391 121.131 238.991C121.034 240.591 121.252 242.194 121.775 243.71C122.297 245.225 123.112 246.623 124.175 247.823C125.237 249.024 126.525 250.003 127.966 250.705C138.369 255.817 153.526 249.606 153.526 249.606C153.526 249.606 149.066 233.874 138.663 228.762ZM137.947 241.989C137.436 243.043 136.624 243.921 135.613 244.513C134.602 245.104 133.438 245.383 132.269 245.312C131.1 245.242 129.978 244.827 129.046 244.119C128.113 243.41 127.411 242.441 127.03 241.334C126.648 240.227 126.604 239.031 126.902 237.899C127.2 236.766 127.828 235.748 128.706 234.972C129.583 234.197 130.671 233.699 131.832 233.542C132.992 233.385 134.173 233.576 135.225 234.091C136.625 234.78 137.696 235.993 138.206 237.467C138.716 238.942 138.623 240.558 137.947 241.964V241.989Z" fill="#F66E18"/>
<path d="M286.17 72.9355C282.988 73.5341 280.174 75.371 278.346 78.0427C276.517 80.7145 275.824 84.0027 276.419 87.1852C278.553 98.5722 292.56 107.084 292.56 107.084C292.56 107.084 302.554 94.0736 300.419 82.6994C299.824 79.5154 297.988 76.6983 295.316 74.8673C292.644 73.0364 289.354 72.3415 286.17 72.9355ZM289.365 90.0096C288.214 90.2248 287.026 90.094 285.95 89.6338C284.874 89.1735 283.958 88.4044 283.319 87.4238C282.68 86.4432 282.346 85.2951 282.36 84.1247C282.373 82.9544 282.734 81.8143 283.395 80.8488C284.057 79.8833 284.99 79.1356 286.076 78.7004C287.163 78.2652 288.354 78.1621 289.499 78.4039C290.645 78.6458 291.692 79.2219 292.51 80.0593C293.328 80.8967 293.879 81.9578 294.093 83.1084C294.381 84.6505 294.045 86.2438 293.158 87.5379C292.271 88.832 290.907 89.7211 289.365 90.0096Z" fill="#F66E18"/>
<path d="M430.162 103.761C427.503 101.915 424.22 101.202 421.035 101.777C417.849 102.352 415.023 104.169 413.177 106.828C406.57 116.336 410.353 132.299 410.353 132.299C410.353 132.299 426.635 130.267 433.229 120.797C434.153 119.479 434.806 117.991 435.152 116.42C435.497 114.848 435.529 113.224 435.243 111.64C434.958 110.056 434.363 108.545 433.49 107.192C432.618 105.84 431.487 104.674 430.162 103.761ZM420.258 118.023C419.296 117.356 418.553 116.418 418.125 115.329C417.696 114.24 417.6 113.048 417.849 111.904C418.097 110.76 418.68 109.716 419.522 108.903C420.365 108.09 421.429 107.546 422.582 107.338C423.734 107.131 424.921 107.27 425.995 107.737C427.068 108.205 427.978 108.98 428.61 109.966C429.243 110.951 429.568 112.101 429.547 113.272C429.525 114.442 429.156 115.58 428.488 116.541C428.046 117.18 427.482 117.725 426.828 118.145C426.175 118.565 425.445 118.853 424.68 118.99C423.916 119.128 423.132 119.113 422.373 118.948C421.614 118.782 420.895 118.468 420.258 118.023Z" fill="#455A64"/>
</svg>
